<svg id="visual" viewBox="0 0 900 200" width="900" height="200" xmlns="http://www.w3.org/2000/svg" xmlns:xlink="http://www.w3.org/1999/xlink" version="1.1"><rect x="0" y="0" width="900" height="200" fill="#202731"></rect><g transform="translate(440.3886498099072 102.17711862815129)"><path d="M30.7 -46.4C42.6 -33.6 57 -28.4 62.1 -18.7C67.2 -9.1 63.1 5 58 18.2C52.8 31.4 46.7 43.6 36.9 55.9C27 68.2 13.5 80.6 2.6 77C-8.2 73.3 -16.5 53.7 -22.4 40.1C-28.3 26.5 -32 19.1 -36.1 10.7C-40.3 2.4 -44.9 -6.8 -45.2 -17.4C-45.5 -28 -41.6 -39.9 -33.3 -53.9C-25.1 -67.9 -12.5 -83.9 -1.6 -81.8C9.4 -79.6 18.8 -59.2 30.7 -46.4" fill="#f5730a"></path></g></svg>