<svg id="visual" viewBox="0 0 900 200" width="900" height="200" xmlns="http://www.w3.org/2000/svg" xmlns:xlink="http://www.w3.org/1999/xlink" version="1.1"><rect x="0" y="0" width="900" height="200" fill="#202731"></rect><g transform="translate(452.13279133542204 101.98763703637628)"><path d="M47.6 -65.2C56 -59.4 53.2 -37.9 53.9 -21C54.5 -4.1 58.6 8.1 59.4 23.4C60.1 38.7 57.4 57 46.9 59.8C36.4 62.7 18.2 50.1 -0.5 50.8C-19.2 51.4 -38.4 65.4 -49 62.6C-59.6 59.8 -61.7 40.2 -62.9 23.5C-64 6.8 -64.4 -7.1 -62 -21.9C-59.6 -36.7 -54.5 -52.3 -43.7 -57.3C-32.9 -62.3 -16.5 -56.7 1.6 -58.8C19.6 -61 39.2 -70.9 47.6 -65.2" fill="#f5730a"></path></g></svg>