<svg id="visual" viewBox="0 0 900 200" width="900" height="200" xmlns="http://www.w3.org/2000/svg" xmlns:xlink="http://www.w3.org/1999/xlink" version="1.1"><rect x="0" y="0" width="900" height="200" fill="#202731"></rect><path d="M0 94L56 72L113 66L169 98L225 89L281 86L338 90L394 97L450 83L506 85L563 73L619 70L675 77L731 70L788 104L844 84L900 71L900 0L844 0L788 0L731 0L675 0L619 0L563 0L506 0L450 0L394 0L338 0L281 0L225 0L169 0L113 0L56 0L0 0Z" fill="#871400"></path><path d="M0 90L56 70L113 92L169 74L225 65L281 68L338 62L394 91L450 77L506 72L563 89L619 74L675 74L731 69L788 85L844 85L900 86L900 0L844 0L788 0L731 0L675 0L619 0L563 0L506 0L450 0L394 0L338 0L281 0L225 0L169 0L113 0L56 0L0 0Z" fill="#972303"></path><path d="M0 72L56 48L113 59L169 51L225 79L281 72L338 78L394 61L450 60L506 75L563 51L619 51L675 49L731 61L788 45L844 77L900 55L900 0L844 0L788 0L731 0L675 0L619 0L563 0L506 0L450 0L394 0L338 0L281 0L225 0L169 0L113 0L56 0L0 0Z" fill="#a63005"></path><path d="M0 67L56 56L113 62L169 51L225 41L281 37L338 41L394 46L450 42L506 42L563 38L619 53L675 67L731 38L788 38L844 54L900 51L900 0L844 0L788 0L731 0L675 0L619 0L563 0L506 0L450 0L394 0L338 0L281 0L225 0L169 0L113 0L56 0L0 0Z" fill="#b63d06"></path><path d="M0 50L56 54L113 43L169 30L225 42L281 37L338 53L394 56L450 37L506 38L563 31L619 30L675 37L731 50L788 29L844 41L900 31L900 0L844 0L788 0L731 0L675 0L619 0L563 0L506 0L450 0L394 0L338 0L281 0L225 0L169 0L113 0L56 0L0 0Z" fill="#c64b08"></path><path d="M0 31L56 39L113 35L169 31L225 37L281 36L338 43L394 39L450 40L506 22L563 41L619 32L675 21L731 32L788 28L844 36L900 34L900 0L844 0L788 0L731 0L675 0L619 0L563 0L506 0L450 0L394 0L338 0L281 0L225 0L169 0L113 0L56 0L0 0Z" fill="#d65809"></path><path d="M0 23L56 27L113 22L169 14L225 26L281 27L338 25L394 24L450 28L506 16L563 17L619 31L675 25L731 16L788 15L844 31L900 25L900 0L844 0L788 0L731 0L675 0L619 0L563 0L506 0L450 0L394 0L338 0L281 0L225 0L169 0L113 0L56 0L0 0Z" fill="#e5650a"></path><path d="M0 16L56 16L113 12L169 18L225 7L281 7L338 10L394 7L450 9L506 9L563 10L619 11L675 10L731 5L788 20L844 11L900 13L900 0L844 0L788 0L731 0L675 0L619 0L563 0L506 0L450 0L394 0L338 0L281 0L225 0L169 0L113 0L56 0L0 0Z" fill="#f5730a"></path></svg>