<svg id="visual" viewBox="0 0 900 300" width="900" height="300" xmlns="http://www.w3.org/2000/svg" xmlns:xlink="http://www.w3.org/1999/xlink" version="1.1"><rect x="0" y="0" width="900" height="300" fill="#202731"></rect><path d="M0 131L56 110L113 111L169 91L225 110L281 106L338 144L394 96L450 119L506 134L563 139L619 122L675 144L731 125L788 109L844 104L900 111L900 0L844 0L788 0L731 0L675 0L619 0L563 0L506 0L450 0L394 0L338 0L281 0L225 0L169 0L113 0L56 0L0 0Z" fill="#871400"></path><path d="M0 135L56 117L113 81L169 121L225 87L281 115L338 128L394 85L450 108L506 111L563 131L619 80L675 114L731 120L788 102L844 110L900 133L900 0L844 0L788 0L731 0L675 0L619 0L563 0L506 0L450 0L394 0L338 0L281 0L225 0L169 0L113 0L56 0L0 0Z" fill="#972303"></path><path d="M0 83L56 106L113 83L169 70L225 78L281 78L338 79L394 80L450 78L506 86L563 106L619 78L675 87L731 86L788 82L844 74L900 70L900 0L844 0L788 0L731 0L675 0L619 0L563 0L506 0L450 0L394 0L338 0L281 0L225 0L169 0L113 0L56 0L0 0Z" fill="#a63005"></path><path d="M0 66L56 63L113 57L169 62L225 87L281 76L338 92L394 101L450 89L506 62L563 60L619 94L675 74L731 93L788 103L844 81L900 101L900 0L844 0L788 0L731 0L675 0L619 0L563 0L506 0L450 0L394 0L338 0L281 0L225 0L169 0L113 0L56 0L0 0Z" fill="#b63d06"></path><path d="M0 48L56 56L113 63L169 50L225 78L281 74L338 74L394 80L450 73L506 53L563 53L619 59L675 59L731 48L788 69L844 66L900 85L900 0L844 0L788 0L731 0L675 0L619 0L563 0L506 0L450 0L394 0L338 0L281 0L225 0L169 0L113 0L56 0L0 0Z" fill="#c64b08"></path><path d="M0 64L56 31L113 54L169 36L225 59L281 63L338 44L394 54L450 33L506 60L563 39L619 60L675 65L731 48L788 62L844 65L900 56L900 0L844 0L788 0L731 0L675 0L619 0L563 0L506 0L450 0L394 0L338 0L281 0L225 0L169 0L113 0L56 0L0 0Z" fill="#d65809"></path><path d="M0 41L56 39L113 25L169 38L225 27L281 31L338 22L394 46L450 43L506 48L563 47L619 40L675 37L731 24L788 43L844 39L900 21L900 0L844 0L788 0L731 0L675 0L619 0L563 0L506 0L450 0L394 0L338 0L281 0L225 0L169 0L113 0L56 0L0 0Z" fill="#e5650a"></path><path d="M0 15L56 9L113 11L169 9L225 30L281 23L338 20L394 15L450 8L506 25L563 17L619 14L675 9L731 20L788 16L844 30L900 28L900 0L844 0L788 0L731 0L675 0L619 0L563 0L506 0L450 0L394 0L338 0L281 0L225 0L169 0L113 0L56 0L0 0Z" fill="#f5730a"></path></svg>