<svg id="visual" viewBox="0 0 900 200" width="900" height="200" xmlns="http://www.w3.org/2000/svg" xmlns:xlink="http://www.w3.org/1999/xlink" version="1.1"><rect x="0" y="0" width="900" height="200" fill="#202731"></rect><path d="M0 104L56 126L113 132L169 100L225 109L281 112L338 108L394 101L450 115L506 113L563 125L619 128L675 121L731 128L788 94L844 114L900 127L900 201L844 201L788 201L731 201L675 201L619 201L563 201L506 201L450 201L394 201L338 201L281 201L225 201L169 201L113 201L56 201L0 201Z" fill="#871400"></path><path d="M0 108L56 128L113 106L169 124L225 133L281 130L338 136L394 107L450 121L506 126L563 109L619 124L675 124L731 129L788 113L844 113L900 112L900 201L844 201L788 201L731 201L675 201L619 201L563 201L506 201L450 201L394 201L338 201L281 201L225 201L169 201L113 201L56 201L0 201Z" fill="#972303"></path><path d="M0 126L56 150L113 139L169 147L225 119L281 126L338 120L394 137L450 138L506 123L563 147L619 147L675 149L731 137L788 153L844 121L900 143L900 201L844 201L788 201L731 201L675 201L619 201L563 201L506 201L450 201L394 201L338 201L281 201L225 201L169 201L113 201L56 201L0 201Z" fill="#a63005"></path><path d="M0 131L56 142L113 136L169 147L225 157L281 161L338 157L394 152L450 156L506 156L563 160L619 145L675 131L731 160L788 160L844 144L900 147L900 201L844 201L788 201L731 201L675 201L619 201L563 201L506 201L450 201L394 201L338 201L281 201L225 201L169 201L113 201L56 201L0 201Z" fill="#b63d06"></path><path d="M0 148L56 144L113 155L169 168L225 156L281 161L338 145L394 142L450 161L506 160L563 167L619 168L675 161L731 148L788 169L844 157L900 167L900 201L844 201L788 201L731 201L675 201L619 201L563 201L506 201L450 201L394 201L338 201L281 201L225 201L169 201L113 201L56 201L0 201Z" fill="#c64b08"></path><path d="M0 167L56 159L113 163L169 167L225 161L281 162L338 155L394 159L450 158L506 176L563 157L619 166L675 177L731 166L788 170L844 162L900 164L900 201L844 201L788 201L731 201L675 201L619 201L563 201L506 201L450 201L394 201L338 201L281 201L225 201L169 201L113 201L56 201L0 201Z" fill="#d65809"></path><path d="M0 175L56 171L113 176L169 184L225 172L281 171L338 173L394 174L450 170L506 182L563 181L619 167L675 173L731 182L788 183L844 167L900 173L900 201L844 201L788 201L731 201L675 201L619 201L563 201L506 201L450 201L394 201L338 201L281 201L225 201L169 201L113 201L56 201L0 201Z" fill="#e5650a"></path><path d="M0 182L56 182L113 186L169 180L225 191L281 191L338 188L394 191L450 189L506 189L563 188L619 187L675 188L731 193L788 178L844 187L900 185L900 201L844 201L788 201L731 201L675 201L619 201L563 201L506 201L450 201L394 201L338 201L281 201L225 201L169 201L113 201L56 201L0 201Z" fill="#f5730a"></path></svg>