<svg id="visual" viewBox="0 0 960 540" width="960" height="540" xmlns="http://www.w3.org/2000/svg" xmlns:xlink="http://www.w3.org/1999/xlink" version="1.1"><g stroke-width="1" stroke-linejoin="bevel"><path d="M464.1 241.5L499.9 296.5L479.9 226Z" fill="#d04e1b" stroke="#d04e1b"></path><path d="M464.1 241.5L425.1 283L499.9 296.5Z" fill="#9d241d" stroke="#9d241d"></path><path d="M409.2 225.5L405.2 248L464.1 241.5Z" fill="#d04e1b" stroke="#d04e1b"></path><path d="M464.1 241.5L405.2 248L425.1 283Z" fill="#a82c1d" stroke="#a82c1d"></path><path d="M479.9 226L409.2 225.5L464.1 241.5Z" fill="#b2341d" stroke="#b2341d"></path><path d="M562.8 173L487.9 162.5L479.9 226Z" fill="#e36015" stroke="#e36015"></path><path d="M479.9 226L487.9 162.5L409.2 225.5Z" fill="#b2341d" stroke="#b2341d"></path><path d="M499.9 296.5L562.8 173L479.9 226Z" fill="#ec6911" stroke="#ec6911"></path><path d="M499.9 296.5L627.6 245L562.8 173Z" fill="#9d241d" stroke="#9d241d"></path><path d="M341.2 346.5L432.1 378.5L425.1 283Z" fill="#ec6911" stroke="#ec6911"></path><path d="M425.1 283L432.1 378.5L499.9 296.5Z" fill="#931c1c" stroke="#931c1c"></path><path d="M622.8 332.5L637.8 260L627.6 245Z" fill="#f5730a" stroke="#f5730a"></path><path d="M562.8 173L482.9 120L487.9 162.5Z" fill="#b2341d" stroke="#b2341d"></path><path d="M487.9 162.5L380.2 128L409.2 225.5Z" fill="#e36015" stroke="#e36015"></path><path d="M622.8 332.5L627.6 245L499.9 296.5Z" fill="#c6451c" stroke="#c6451c"></path><path d="M653.6 227.5L636.8 221.5L627.6 245Z" fill="#f5730a" stroke="#f5730a"></path><path d="M627.6 245L636.8 221.5L562.8 173Z" fill="#a82c1d" stroke="#a82c1d"></path><path d="M562.8 173L544.9 87.5L482.9 120Z" fill="#d04e1b" stroke="#d04e1b"></path><path d="M542.9 407L622.8 332.5L499.9 296.5Z" fill="#9d241d" stroke="#9d241d"></path><path d="M432.1 378.5L483.1 411L499.9 296.5Z" fill="#e36015" stroke="#e36015"></path><path d="M483.1 411L542.9 407L499.9 296.5Z" fill="#e36015" stroke="#e36015"></path><path d="M637.8 260L653.6 227.5L627.6 245Z" fill="#a82c1d" stroke="#a82c1d"></path><path d="M652.6 152L544.9 87.5L562.8 173Z" fill="#f5730a" stroke="#f5730a"></path><path d="M718.5 318.5L653.6 227.5L637.8 260Z" fill="#a82c1d" stroke="#a82c1d"></path><path d="M486.1 63.5L449.1 96L482.9 120Z" fill="#da5718" stroke="#da5718"></path><path d="M482.9 120L449.1 96L487.9 162.5Z" fill="#9d241d" stroke="#9d241d"></path><path d="M380.2 128L342.4 180L409.2 225.5Z" fill="#ec6911" stroke="#ec6911"></path><path d="M409.2 225.5L342.4 180L405.2 248Z" fill="#e36015" stroke="#e36015"></path><path d="M405.2 248L341.2 346.5L425.1 283Z" fill="#d04e1b" stroke="#d04e1b"></path><path d="M449.1 96L380.2 128L487.9 162.5Z" fill="#a82c1d" stroke="#a82c1d"></path><path d="M652.6 152L562.8 173L636.8 221.5Z" fill="#9d241d" stroke="#9d241d"></path><path d="M256.4 236L341.2 346.5L405.2 248Z" fill="#c6451c" stroke="#c6451c"></path><path d="M432.1 378.5L411.2 436L483.1 411Z" fill="#f5730a" stroke="#f5730a"></path><path d="M432.1 0L416.2 93.5L449.1 96Z" fill="#b2341d" stroke="#b2341d"></path><path d="M449.1 96L416.2 93.5L380.2 128Z" fill="#ec6911" stroke="#ec6911"></path><path d="M691.5 176.5L652.6 152L636.8 221.5Z" fill="#c6451c" stroke="#c6451c"></path><path d="M544.9 87.5L486.1 63.5L482.9 120Z" fill="#e36015" stroke="#e36015"></path><path d="M322.4 382.5L411.2 436L432.1 378.5Z" fill="#b2341d" stroke="#b2341d"></path><path d="M483.1 411L472.9 498.5L542.9 407Z" fill="#f5730a" stroke="#f5730a"></path><path d="M542.9 407L621.8 421L622.8 332.5Z" fill="#c6451c" stroke="#c6451c"></path><path d="M622.8 332.5L718.5 318.5L637.8 260Z" fill="#a82c1d" stroke="#a82c1d"></path><path d="M583.8 508.5L621.8 421L542.9 407Z" fill="#f5730a" stroke="#f5730a"></path><path d="M621.8 421L635.6 416L622.8 332.5Z" fill="#f5730a" stroke="#f5730a"></path><path d="M221.5 319.5L317.4 370L341.2 346.5Z" fill="#a82c1d" stroke="#a82c1d"></path><path d="M341.2 346.5L322.4 382.5L432.1 378.5Z" fill="#e36015" stroke="#e36015"></path><path d="M735.5 173L691.5 176.5L757.5 232Z" fill="#a82c1d" stroke="#a82c1d"></path><path d="M653.6 227.5L691.5 176.5L636.8 221.5Z" fill="#e36015" stroke="#e36015"></path><path d="M317.4 370L322.4 382.5L341.2 346.5Z" fill="#b2341d" stroke="#b2341d"></path><path d="M635.6 416L672.6 381.5L622.8 332.5Z" fill="#da5718" stroke="#da5718"></path><path d="M686.6 68.5L548.8 49.5L544.9 87.5Z" fill="#e36015" stroke="#e36015"></path><path d="M544.9 87.5L548.8 49.5L486.1 63.5Z" fill="#c6451c" stroke="#c6451c"></path><path d="M540.9 0L548.8 49.5L635.8 0Z" fill="#e36015" stroke="#e36015"></path><path d="M672.6 381.5L718.5 318.5L622.8 332.5Z" fill="#b2341d" stroke="#b2341d"></path><path d="M429.1 512.5L472.9 498.5L411.2 436Z" fill="#c6451c" stroke="#c6451c"></path><path d="M411.2 436L472.9 498.5L483.1 411Z" fill="#d04e1b" stroke="#d04e1b"></path><path d="M621.8 421L632.6 510.5L635.6 416Z" fill="#ec6911" stroke="#ec6911"></path><path d="M257.4 177.5L256.4 236L342.4 180Z" fill="#f5730a" stroke="#f5730a"></path><path d="M342.4 180L256.4 236L405.2 248Z" fill="#da5718" stroke="#da5718"></path><path d="M316.4 485.5L346.2 455.5L322.4 382.5Z" fill="#9d241d" stroke="#9d241d"></path><path d="M257.4 177.5L342.4 180L248.5 166Z" fill="#c6451c" stroke="#c6451c"></path><path d="M635.6 416L705.5 383L672.6 381.5Z" fill="#f5730a" stroke="#f5730a"></path><path d="M672.6 381.5L705.5 383L718.5 318.5Z" fill="#e36015" stroke="#e36015"></path><path d="M728.5 513.5L705.5 383L635.6 416Z" fill="#a82c1d" stroke="#a82c1d"></path><path d="M212.5 446L322.4 382.5L317.4 370Z" fill="#a82c1d" stroke="#a82c1d"></path><path d="M322.4 382.5L346.2 455.5L411.2 436Z" fill="#e36015" stroke="#e36015"></path><path d="M248.5 166L342.4 180L267.4 48.5Z" fill="#e36015" stroke="#e36015"></path><path d="M757.5 232L691.5 176.5L653.6 227.5Z" fill="#931c1c" stroke="#931c1c"></path><path d="M691.5 176.5L686.6 68.5L652.6 152Z" fill="#bc3d1d" stroke="#bc3d1d"></path><path d="M718.5 318.5L757.5 232L653.6 227.5Z" fill="#d04e1b" stroke="#d04e1b"></path><path d="M809.3 318L757.5 232L718.5 318.5Z" fill="#9d241d" stroke="#9d241d"></path><path d="M346.2 455.5L429.1 512.5L411.2 436Z" fill="#931c1c" stroke="#931c1c"></path><path d="M686.6 68.5L544.9 87.5L652.6 152Z" fill="#da5718" stroke="#da5718"></path><path d="M548.8 49.5L540.9 0L486.1 63.5Z" fill="#c6451c" stroke="#c6451c"></path><path d="M486.1 63.5L432.1 0L449.1 96Z" fill="#d04e1b" stroke="#d04e1b"></path><path d="M267.4 48.5L342.4 180L380.2 128Z" fill="#a82c1d" stroke="#a82c1d"></path><path d="M483.9 540L583.8 508.5L472.9 498.5Z" fill="#a82c1d" stroke="#a82c1d"></path><path d="M472.9 498.5L583.8 508.5L542.9 407Z" fill="#bc3d1d" stroke="#bc3d1d"></path><path d="M390.2 0L380.2 128L416.2 93.5Z" fill="#bc3d1d" stroke="#bc3d1d"></path><path d="M257.4 177.5L199.5 231L256.4 236Z" fill="#ec6911" stroke="#ec6911"></path><path d="M540.9 0L432.1 0L486.1 63.5Z" fill="#931c1c" stroke="#931c1c"></path><path d="M716.5 67.5L686.6 68.5L691.5 176.5Z" fill="#da5718" stroke="#da5718"></path><path d="M432.1 0L390.2 0L416.2 93.5Z" fill="#a82c1d" stroke="#a82c1d"></path><path d="M465.1 540L483.9 540L472.9 498.5Z" fill="#931c1c" stroke="#931c1c"></path><path d="M199.5 231L221.5 319.5L256.4 236Z" fill="#e36015" stroke="#e36015"></path><path d="M256.4 236L221.5 319.5L341.2 346.5Z" fill="#c6451c" stroke="#c6451c"></path><path d="M377.2 540L465.1 540L429.1 512.5Z" fill="#b2341d" stroke="#b2341d"></path><path d="M429.1 512.5L465.1 540L472.9 498.5Z" fill="#e36015" stroke="#e36015"></path><path d="M583.8 508.5L632.6 510.5L621.8 421Z" fill="#ec6911" stroke="#ec6911"></path><path d="M601.8 540L632.6 510.5L583.8 508.5Z" fill="#bc3d1d" stroke="#bc3d1d"></path><path d="M212.5 446L316.4 485.5L322.4 382.5Z" fill="#da5718" stroke="#da5718"></path><path d="M346.2 455.5L377.2 540L429.1 512.5Z" fill="#b2341d" stroke="#b2341d"></path><path d="M735.5 173L716.5 67.5L691.5 176.5Z" fill="#a82c1d" stroke="#a82c1d"></path><path d="M686.6 68.5L635.8 0L548.8 49.5Z" fill="#ec6911" stroke="#ec6911"></path><path d="M808.3 113L716.5 67.5L735.5 173Z" fill="#e36015" stroke="#e36015"></path><path d="M693.5 0L635.8 0L686.6 68.5Z" fill="#a82c1d" stroke="#a82c1d"></path><path d="M217.5 62.5L217.5 163.5L248.5 166Z" fill="#e36015" stroke="#e36015"></path><path d="M248.5 166L217.5 163.5L257.4 177.5Z" fill="#a82c1d" stroke="#a82c1d"></path><path d="M728.5 513.5L770.3 375L705.5 383Z" fill="#c6451c" stroke="#c6451c"></path><path d="M705.5 383L770.3 375L718.5 318.5Z" fill="#931c1c" stroke="#931c1c"></path><path d="M217.5 163.5L199.5 231L257.4 177.5Z" fill="#d04e1b" stroke="#d04e1b"></path><path d="M483.9 540L601.8 540L583.8 508.5Z" fill="#c6451c" stroke="#c6451c"></path><path d="M851.2 163.5L785.3 177.5L757.5 232Z" fill="#ec6911" stroke="#ec6911"></path><path d="M757.5 232L785.3 177.5L735.5 173Z" fill="#9d241d" stroke="#9d241d"></path><path d="M316.4 485.5L377.2 540L346.2 455.5Z" fill="#e36015" stroke="#e36015"></path><path d="M390.2 0L267.4 48.5L380.2 128Z" fill="#931c1c" stroke="#931c1c"></path><path d="M199.5 231L187.7 317L221.5 319.5Z" fill="#da5718" stroke="#da5718"></path><path d="M221.5 319.5L212.5 446L317.4 370Z" fill="#c6451c" stroke="#c6451c"></path><path d="M770.3 375L809.3 318L718.5 318.5Z" fill="#a82c1d" stroke="#a82c1d"></path><path d="M239.5 511.5L335.4 540L316.4 485.5Z" fill="#d04e1b" stroke="#d04e1b"></path><path d="M316.4 485.5L335.4 540L377.2 540Z" fill="#d04e1b" stroke="#d04e1b"></path><path d="M697.6 0L686.6 68.5L716.5 67.5Z" fill="#da5718" stroke="#da5718"></path><path d="M697.6 0L693.5 0L686.6 68.5Z" fill="#bc3d1d" stroke="#bc3d1d"></path><path d="M778.3 0L697.6 0L716.5 67.5Z" fill="#931c1c" stroke="#931c1c"></path><path d="M601.8 540L671.6 540L632.6 510.5Z" fill="#9d241d" stroke="#9d241d"></path><path d="M632.6 510.5L728.5 513.5L635.6 416Z" fill="#9d241d" stroke="#9d241d"></path><path d="M770.3 375L826.3 362.5L809.3 318Z" fill="#e36015" stroke="#e36015"></path><path d="M168.7 432L212.5 446L221.5 319.5Z" fill="#bc3d1d" stroke="#bc3d1d"></path><path d="M267.4 0L217.5 62.5L267.4 48.5Z" fill="#f5730a" stroke="#f5730a"></path><path d="M267.4 48.5L217.5 62.5L248.5 166Z" fill="#a82c1d" stroke="#a82c1d"></path><path d="M112.7 198.5L112.8 220.5L199.5 231Z" fill="#ec6911" stroke="#ec6911"></path><path d="M199.5 231L112.8 220.5L187.7 317Z" fill="#ec6911" stroke="#ec6911"></path><path d="M671.6 540L728.5 513.5L632.6 510.5Z" fill="#9d241d" stroke="#9d241d"></path><path d="M851.2 163.5L808.3 113L785.3 177.5Z" fill="#c6451c" stroke="#c6451c"></path><path d="M785.3 177.5L808.3 113L735.5 173Z" fill="#9d241d" stroke="#9d241d"></path><path d="M876.2 400L826.3 362.5L860.2 455.5Z" fill="#c6451c" stroke="#c6451c"></path><path d="M873.2 305L851.2 163.5L757.5 232Z" fill="#d04e1b" stroke="#d04e1b"></path><path d="M390.2 0L268.5 0L267.4 48.5Z" fill="#bc3d1d" stroke="#bc3d1d"></path><path d="M268.5 0L267.4 0L267.4 48.5Z" fill="#f5730a" stroke="#f5730a"></path><path d="M808.3 113L802.3 81.5L716.5 67.5Z" fill="#ec6911" stroke="#ec6911"></path><path d="M212.5 446L239.5 511.5L316.4 485.5Z" fill="#d04e1b" stroke="#d04e1b"></path><path d="M174.7 0L171.7 93L217.5 62.5Z" fill="#ec6911" stroke="#ec6911"></path><path d="M217.5 62.5L171.7 93L217.5 163.5Z" fill="#ec6911" stroke="#ec6911"></path><path d="M873.2 305L757.5 232L809.3 318Z" fill="#e36015" stroke="#e36015"></path><path d="M808.3 113L870.2 41.5L802.3 81.5Z" fill="#d04e1b" stroke="#d04e1b"></path><path d="M187.7 317L168.7 432L221.5 319.5Z" fill="#9d241d" stroke="#9d241d"></path><path d="M141.7 497.5L218.5 540L239.5 511.5Z" fill="#9d241d" stroke="#9d241d"></path><path d="M115.7 352.5L168.7 432L187.7 317Z" fill="#d04e1b" stroke="#d04e1b"></path><path d="M671.6 540L743.5 540L728.5 513.5Z" fill="#c6451c" stroke="#c6451c"></path><path d="M728.5 513.5L860.2 455.5L770.3 375Z" fill="#b2341d" stroke="#b2341d"></path><path d="M876.2 400L873.2 305L826.3 362.5Z" fill="#f5730a" stroke="#f5730a"></path><path d="M826.3 362.5L873.2 305L809.3 318Z" fill="#bc3d1d" stroke="#bc3d1d"></path><path d="M855.2 0L778.3 0L802.3 81.5Z" fill="#d04e1b" stroke="#d04e1b"></path><path d="M802.3 81.5L778.3 0L716.5 67.5Z" fill="#bc3d1d" stroke="#bc3d1d"></path><path d="M112.7 198.5L199.5 231L217.5 163.5Z" fill="#d04e1b" stroke="#d04e1b"></path><path d="M130.7 115.5L112.7 198.5L217.5 163.5Z" fill="#c6451c" stroke="#c6451c"></path><path d="M743.5 540L770.3 540L728.5 513.5Z" fill="#931c1c" stroke="#931c1c"></path><path d="M73.8 297L115.7 352.5L187.7 317Z" fill="#931c1c" stroke="#931c1c"></path><path d="M109.8 90.5L130.7 115.5L171.7 93Z" fill="#b2341d" stroke="#b2341d"></path><path d="M171.7 93L130.7 115.5L217.5 163.5Z" fill="#f5730a" stroke="#f5730a"></path><path d="M141.7 497.5L212.5 446L168.7 432Z" fill="#c6451c" stroke="#c6451c"></path><path d="M141.7 497.5L239.5 511.5L212.5 446Z" fill="#da5718" stroke="#da5718"></path><path d="M239.5 511.5L218.5 540L335.4 540Z" fill="#e36015" stroke="#e36015"></path><path d="M873.2 305L885.2 161L851.2 163.5Z" fill="#a82c1d" stroke="#a82c1d"></path><path d="M851.2 163.5L885.2 161L808.3 113Z" fill="#931c1c" stroke="#931c1c"></path><path d="M860.2 455.5L826.3 362.5L770.3 375Z" fill="#da5718" stroke="#da5718"></path><path d="M873.2 305L960 238L885.2 161Z" fill="#931c1c" stroke="#931c1c"></path><path d="M770.3 540L860.2 455.5L728.5 513.5Z" fill="#c6451c" stroke="#c6451c"></path><path d="M267.4 0L174.7 0L217.5 62.5Z" fill="#f5730a" stroke="#f5730a"></path><path d="M110.8 0L109.8 90.5L171.7 93Z" fill="#b2341d" stroke="#b2341d"></path><path d="M130.7 115.5L76.8 163L112.7 198.5Z" fill="#e36015" stroke="#e36015"></path><path d="M0 297L73.8 297L0 198.5Z" fill="#c6451c" stroke="#c6451c"></path><path d="M112.8 220.5L73.8 297L187.7 317Z" fill="#c6451c" stroke="#c6451c"></path><path d="M76.8 163L112.8 220.5L112.7 198.5Z" fill="#ec6911" stroke="#ec6911"></path><path d="M83.8 446L141.7 497.5L168.7 432Z" fill="#f5730a" stroke="#f5730a"></path><path d="M83.8 446L168.7 432L115.7 352.5Z" fill="#f5730a" stroke="#f5730a"></path><path d="M109.8 90.5L76.8 163L130.7 115.5Z" fill="#931c1c" stroke="#931c1c"></path><path d="M960 341.5L924.2 322.5L876.2 400Z" fill="#c6451c" stroke="#c6451c"></path><path d="M876.2 400L924.2 322.5L873.2 305Z" fill="#ec6911" stroke="#ec6911"></path><path d="M885.2 161L870.2 41.5L808.3 113Z" fill="#e36015" stroke="#e36015"></path><path d="M960 97L870.2 41.5L885.2 161Z" fill="#a82c1d" stroke="#a82c1d"></path><path d="M770.3 540L850.3 508.5L860.2 455.5Z" fill="#f5730a" stroke="#f5730a"></path><path d="M960 435L960 341.5L876.2 400Z" fill="#a82c1d" stroke="#a82c1d"></path><path d="M141.7 497.5L163.7 540L218.5 540Z" fill="#ec6911" stroke="#ec6911"></path><path d="M0 297L65.8 354.5L73.8 297Z" fill="#d04e1b" stroke="#d04e1b"></path><path d="M73.8 297L65.8 354.5L115.7 352.5Z" fill="#ec6911" stroke="#ec6911"></path><path d="M141.7 497.5L56.8 540L163.7 540Z" fill="#a82c1d" stroke="#a82c1d"></path><path d="M870.2 41.5L855.2 0L802.3 81.5Z" fill="#bc3d1d" stroke="#bc3d1d"></path><path d="M65.8 354.5L83.8 446L115.7 352.5Z" fill="#bc3d1d" stroke="#bc3d1d"></path><path d="M960 341.5L960 238L924.2 322.5Z" fill="#b2341d" stroke="#b2341d"></path><path d="M924.2 322.5L960 238L873.2 305Z" fill="#da5718" stroke="#da5718"></path><path d="M870.2 41.5L960 0L855.2 0Z" fill="#f5730a" stroke="#f5730a"></path><path d="M960 238L960 226.5L885.2 161Z" fill="#d04e1b" stroke="#d04e1b"></path><path d="M174.7 0L110.8 0L171.7 93Z" fill="#da5718" stroke="#da5718"></path><path d="M0 173L0 198.5L76.8 163Z" fill="#c6451c" stroke="#c6451c"></path><path d="M960 435L876.2 400L860.2 455.5Z" fill="#bc3d1d" stroke="#bc3d1d"></path><path d="M770.3 540L890.2 540L850.3 508.5Z" fill="#a82c1d" stroke="#a82c1d"></path><path d="M850.3 508.5L890.2 540L860.2 455.5Z" fill="#f5730a" stroke="#f5730a"></path><path d="M0 439.5L69.8 495.5L83.8 446Z" fill="#ec6911" stroke="#ec6911"></path><path d="M83.8 446L69.8 495.5L141.7 497.5Z" fill="#931c1c" stroke="#931c1c"></path><path d="M960 226.5L960 97L885.2 161Z" fill="#9d241d" stroke="#9d241d"></path><path d="M960 467.5L960 435L860.2 455.5Z" fill="#bc3d1d" stroke="#bc3d1d"></path><path d="M0 198.5L73.8 297L112.8 220.5Z" fill="#f5730a" stroke="#f5730a"></path><path d="M65.8 354.5L0 418L83.8 446Z" fill="#f5730a" stroke="#f5730a"></path><path d="M0 198.5L112.8 220.5L76.8 163Z" fill="#e36015" stroke="#e36015"></path><path d="M0 173L76.8 163L0 105.5Z" fill="#a82c1d" stroke="#a82c1d"></path><path d="M0 105.5L76.8 163L109.8 90.5Z" fill="#a82c1d" stroke="#a82c1d"></path><path d="M0 297L0 348.5L65.8 354.5Z" fill="#ec6911" stroke="#ec6911"></path><path d="M890.2 540L960 467.5L860.2 455.5Z" fill="#da5718" stroke="#da5718"></path><path d="M960 97L960 23.5L870.2 41.5Z" fill="#931c1c" stroke="#931c1c"></path><path d="M0 0L0 105.5L109.8 90.5Z" fill="#b2341d" stroke="#b2341d"></path><path d="M0 348.5L0 418L65.8 354.5Z" fill="#bc3d1d" stroke="#bc3d1d"></path><path d="M0 540L56.8 540L69.8 495.5Z" fill="#da5718" stroke="#da5718"></path><path d="M69.8 495.5L56.8 540L141.7 497.5Z" fill="#ec6911" stroke="#ec6911"></path><path d="M0 418L0 439.5L83.8 446Z" fill="#c6451c" stroke="#c6451c"></path><path d="M960 23.5L960 0L870.2 41.5Z" fill="#da5718" stroke="#da5718"></path><path d="M890.2 540L960 540L960 467.5Z" fill="#931c1c" stroke="#931c1c"></path><path d="M110.8 0L0 0L109.8 90.5Z" fill="#931c1c" stroke="#931c1c"></path><path d="M0 439.5L0 540L69.8 495.5Z" fill="#da5718" stroke="#da5718"></path></g></svg>