<svg id="visual" viewBox="0 0 900 200" width="900" height="200" xmlns="http://www.w3.org/2000/svg" xmlns:xlink="http://www.w3.org/1999/xlink" version="1.1"><rect x="0" y="0" width="900" height="200" fill="#202731"></rect><path d="M0 151L4.8 157.2C9.7 163.3 19.3 175.7 29 180C38.7 184.3 48.3 180.7 58 175.3C67.7 170 77.3 163 87 161.7C96.7 160.3 106.3 164.7 116 168.3C125.7 172 135.3 175 145 178.3C154.7 181.7 164.3 185.3 174 182C183.7 178.7 193.3 168.3 203 164.5C212.7 160.7 222.3 163.3 232 167.2C241.7 171 251.3 176 261 176.8C270.7 177.7 280.3 174.3 290 171.3C299.7 168.3 309.3 165.7 319 163.8C328.7 162 338.3 161 348 160.7C357.7 160.3 367.3 160.7 377 158.8C386.7 157 396.3 153 406 156.8C415.7 160.7 425.3 172.3 435.2 175.7C445 179 455 174 464.8 171.2C474.7 168.3 484.3 167.7 494 166.8C503.7 166 513.3 165 523 164.3C532.7 163.7 542.3 163.3 552 167.3C561.7 171.3 571.3 179.7 581 178.2C590.7 176.7 600.3 165.3 610 164.2C619.7 163 629.3 172 639 174.2C648.7 176.3 658.3 171.7 668 170.5C677.7 169.3 687.3 171.7 697 175.3C706.7 179 716.3 184 726 186.2C735.7 188.3 745.3 187.7 755 184.5C764.7 181.3 774.3 175.7 784 169.2C793.7 162.7 803.3 155.3 813 152.3C822.7 149.3 832.3 150.7 842 151.3C851.7 152 861.3 152 871 152.8C880.7 153.7 890.3 155.3 895.2 156.2L900 157L900 201L895.2 201C890.3 201 880.7 201 871 201C861.3 201 851.7 201 842 201C832.3 201 822.7 201 813 201C803.3 201 793.7 201 784 201C774.3 201 764.7 201 755 201C745.3 201 735.7 201 726 201C716.3 201 706.7 201 697 201C687.3 201 677.7 201 668 201C658.3 201 648.7 201 639 201C629.3 201 619.7 201 610 201C600.3 201 590.7 201 581 201C571.3 201 561.7 201 552 201C542.3 201 532.7 201 523 201C513.3 201 503.7 201 494 201C484.3 201 474.7 201 464.8 201C455 201 445 201 435.2 201C425.3 201 415.7 201 406 201C396.3 201 386.7 201 377 201C367.3 201 357.7 201 348 201C338.3 201 328.7 201 319 201C309.3 201 299.7 201 290 201C280.3 201 270.7 201 261 201C251.3 201 241.7 201 232 201C222.3 201 212.7 201 203 201C193.3 201 183.7 201 174 201C164.3 201 154.7 201 145 201C135.3 201 125.7 201 116 201C106.3 201 96.7 201 87 201C77.3 201 67.7 201 58 201C48.3 201 38.7 201 29 201C19.3 201 9.7 201 4.8 201L0 201Z" fill="#871400" stroke-linecap="round" stroke-linejoin="miter"></path></svg>